<?xml version="1.0" encoding="UTF-8" standalone="no"?>
<!-- Created with Inkscape (http://www.inkscape.org/) -->

<svg
   version="1.1"
   id="svg2928"
   xml:space="preserve"
   width="682.66669"
   height="682.66669"
   viewBox="0 0 682.66669 682.66669"
   xmlns="http://www.w3.org/2000/svg"
   xmlns:svg="http://www.w3.org/2000/svg"><defs
     id="defs2932"><clipPath
       clipPathUnits="userSpaceOnUse"
       id="clipPath2946"><path
         d="M 0,512 H 512 V 0 H 0 Z"
         id="path2944" /></clipPath></defs><g
     id="g2934"
     transform="matrix(1.3333333,0,0,-1.3333333,0,682.66667)"><g
       id="g2936"
       transform="translate(78.2573,370.2319)"><path
         d="M 0,0 V 0 -10.981"
         style="fill:none;stroke:#000000;stroke-width:15;stroke-linecap:round;stroke-linejoin:round;stroke-miterlimit:10;stroke-dasharray:none;stroke-opacity:1"
         id="path2938" /></g><g
       id="g2940"><g
         id="g2942"
         clip-path="url(#clipPath2946)"><g
           id="g2948"
           transform="translate(472.0767,164.8369)"><path
             d="m 0,0 h -138.002 c 0,43.12 -34.955,78.074 -78.075,78.074 -43.119,0 -78.074,-34.954 -78.074,-78.074 h -138.002 c 0,119.333 96.743,216.077 216.076,216.077 C -96.743,216.077 0,119.333 0,0"
             style="fill:#fd636f;fill-opacity:1;fill-rule:nonzero;stroke:none"
             id="path2950" /></g><g
           id="g2952"
           transform="translate(472.0801,164.8379)"><path
             d="m 0,0 h -33.62 c 0,113.67 -87.79,206.86 -199.26,215.43 5.54,0.43 11.15,0.65 16.8,0.65 C -96.75,216.08 0,119.33 0,0"
             style="fill:#fe4855;fill-opacity:1;fill-rule:nonzero;stroke:none"
             id="path2954" /></g><g
           id="g2956"
           transform="translate(427.0352,164.8369)"><path
             d="m 0,0 h -92.96 c 0,43.12 -34.956,78.074 -78.075,78.074 -43.12,0 -78.075,-34.954 -78.075,-78.074 h -92.96 c 0,94.456 76.578,171.035 171.035,171.035 C -76.579,171.035 0,94.456 0,0"
             style="fill:#fee35a;fill-opacity:1;fill-rule:nonzero;stroke:none"
             id="path2958" /></g><g
           id="g2960"
           transform="translate(427.04,164.8379)"><path
             d="m 0,0 h -33.62 c 0,88.79 -67.66,161.77 -154.22,170.21 5.53,0.54 11.13,0.82 16.8,0.82 C -76.58,171.03 0,94.46 0,0"
             style="fill:#fed400;fill-opacity:1;fill-rule:nonzero;stroke:none"
             id="path2962" /></g><g
           id="g2964"
           transform="translate(381.4985,164.8369)"><path
             d="m 0,0 h -47.424 c 0,43.12 -34.955,78.074 -78.075,78.074 -43.119,0 -78.074,-34.954 -78.074,-78.074 h -47.424 c 0,69.31 56.189,125.498 125.498,125.498 C -56.189,125.498 0,69.31 0,0"
             style="fill:#0ed2b3;fill-opacity:1;fill-rule:nonzero;stroke:none"
             id="path2966" /></g><g
           id="g2968"
           transform="translate(381.5,164.8379)"><path
             d="m 0,0 h -33.62 c 0,63.61 -47.32,116.17 -108.69,124.38 5.5,0.74 11.11,1.12 16.81,1.12 C -56.19,125.5 0,69.31 0,0"
             style="fill:#09b79f;fill-opacity:1;fill-rule:nonzero;stroke:none"
             id="path2970" /></g><g
           id="g2972"
           transform="translate(84.9663,164.8369)"><path
             d="M 0,0 C 0,94.459 76.574,171.034 171.034,171.034 265.493,171.034 342.067,94.459 342.067,0"
             style="fill:none;stroke:#000000;stroke-width:15;stroke-linecap:round;stroke-linejoin:round;stroke-miterlimit:10;stroke-dasharray:none;stroke-opacity:1"
             id="path2974" /></g><g
           id="g2976"
           transform="translate(381.4966,164.8369)"><path
             d="M 0,0 C 0,63.773 -47.57,116.433 -109.163,124.439"
             style="fill:none;stroke:#000000;stroke-width:15;stroke-linecap:round;stroke-linejoin:round;stroke-miterlimit:10;stroke-dasharray:none;stroke-opacity:1"
             id="path2978" /></g><g
           id="g2980"
           transform="translate(239.3433,289.231)"><path
             d="M 0,0 C -61.435,-8.148 -108.84,-60.732 -108.84,-124.394"
             style="fill:none;stroke:#000000;stroke-width:15;stroke-linecap:round;stroke-linejoin:round;stroke-miterlimit:10;stroke-dasharray:none;stroke-opacity:1"
             id="path2982" /></g><g
           id="g2984"
           transform="translate(405.7358,320.6074)"><path
             d="m 0,0 c -38.838,37.343 -91.603,60.306 -149.736,60.306 -119.336,0 -216.076,-96.741 -216.076,-216.077 h 138.003 c 0,43.119 34.955,78.073 78.073,78.073 43.119,0 78.073,-34.954 78.073,-78.073 H 66.341 c 0,49.297 -16.52,94.728 -44.31,131.086"
             style="fill:none;stroke:#000000;stroke-width:15;stroke-linecap:round;stroke-linejoin:round;stroke-miterlimit:10;stroke-dasharray:none;stroke-opacity:1"
             id="path2986" /></g><g
           id="g2988"
           transform="translate(164.7007,189.4414)"><path
             d="m 0,0 c -4.91,0 -9.597,-0.947 -13.9,-2.653 -8.208,17.039 -25.642,28.798 -45.821,28.798 -20.178,0 -37.612,-11.759 -45.82,-28.798 -4.303,1.706 -8.99,2.653 -13.9,2.653 -20.854,0 -37.76,-16.905 -37.76,-37.759 0,-20.854 16.906,-37.76 37.76,-37.76 10.738,0 20.421,4.49 27.297,11.686 8.8,-7.297 20.099,-11.686 32.423,-11.686 12.325,0 23.624,4.389 32.424,11.686 6.876,-7.196 16.559,-11.686 27.297,-11.686 20.854,0 37.76,16.906 37.76,37.76 C 37.76,-16.905 20.854,0 0,0"
             style="fill:#b4daff;fill-opacity:1;fill-rule:nonzero;stroke:none"
             id="path2990" /></g><g
           id="g2992"
           transform="translate(202.459,151.4023)"><path
             d="m 0,0 c -0.149,-20.973 -18.196,-38.223 -39.156,-37.459 -10.181,0.371 -19.323,4.778 -25.903,11.665 -8.8,-7.3 -20.09,-11.69 -32.42,-11.69 -12.32,0 -23.62,4.39 -32.42,11.69 -6.88,-7.201 -16.56,-11.69 -27.3,-11.69 -18.94,0 -34.63,13.95 -37.34,32.14 6,-4.031 13.23,-6.381 21.01,-6.381 8.204,0 15.79,2.621 21.981,7.067 3.269,2.348 7.627,2.621 11.049,0.504 7.755,-4.8 16.895,-7.571 26.69,-7.571 9.789,0 18.934,2.772 26.692,7.572 3.411,2.111 7.763,1.858 11.019,-0.485 6.641,-4.779 14.89,-7.454 23.786,-7.046 20.227,0.929 36.289,18.07 35.979,38.316 -0.027,1.705 -0.165,3.385 -0.416,5.024 C -6.578,24.828 0.094,13.194 0,0"
             style="fill:#8bc9fe;fill-opacity:1;fill-rule:nonzero;stroke:none"
             id="path2994" /></g><g
           id="g2996"
           transform="translate(34.1206,115.5947)"><path
             d="m 0,0 c 3.521,-1.086 7.261,-1.672 11.139,-1.672 10.738,0 20.422,4.489 27.297,11.685 8.8,-7.297 20.099,-11.685 32.424,-11.685 12.325,0 23.623,4.388 32.423,11.685 6.876,-7.196 16.559,-11.685 27.298,-11.685 20.853,0 37.759,16.905 37.759,37.759 0,20.854 -16.906,37.76 -37.759,37.76 -4.911,0 -9.597,-0.948 -13.901,-2.653 -8.208,17.039 -25.641,28.797 -45.82,28.797 -20.179,0 -37.612,-11.758 -45.821,-28.797 -4.303,1.705 -8.99,2.653 -13.9,2.653 -20.854,0 -37.76,-16.906 -37.76,-37.76 0,-4.799 0.905,-9.384 2.538,-13.607"
             style="fill:none;stroke:#000000;stroke-width:15;stroke-linecap:round;stroke-linejoin:round;stroke-miterlimit:10;stroke-dasharray:none;stroke-opacity:1"
             id="path2998" /></g><g
           id="g3000"
           transform="translate(466.7402,189.4414)"><path
             d="m 0,0 c -4.91,0 -9.597,-0.947 -13.9,-2.653 -8.208,17.039 -25.642,28.798 -45.82,28.798 -20.179,0 -37.613,-11.759 -45.821,-28.798 -4.303,1.706 -8.99,2.653 -13.9,2.653 -20.854,0 -37.76,-16.905 -37.76,-37.759 0,-20.854 16.906,-37.76 37.76,-37.76 10.738,0 20.421,4.49 27.297,11.686 8.8,-7.297 20.099,-11.686 32.424,-11.686 12.324,0 23.623,4.389 32.423,11.686 6.876,-7.196 16.559,-11.686 27.297,-11.686 20.854,0 37.76,16.906 37.76,37.76 C 37.76,-16.905 20.854,0 0,0"
             style="fill:#b4daff;fill-opacity:1;fill-rule:nonzero;stroke:none"
             id="path3002" /></g><g
           id="g3004"
           transform="translate(504.499,151.4023)"><path
             d="m 0,0 c -0.15,-20.973 -18.196,-38.223 -39.156,-37.459 -10.181,0.371 -19.323,4.778 -25.903,11.665 -8.8,-7.3 -20.1,-11.69 -32.42,-11.69 -12.33,0 -23.62,4.39 -32.42,11.69 -6.88,-7.201 -16.56,-11.69 -27.3,-11.69 -18.94,0 -34.63,13.95 -37.34,32.14 6,-4.031 13.23,-6.381 21.01,-6.381 8.204,0 15.79,2.621 21.981,7.067 3.269,2.348 7.627,2.621 11.048,0.504 7.756,-4.8 16.896,-7.571 26.691,-7.571 9.788,0 18.934,2.772 26.692,7.572 3.411,2.111 7.762,1.859 11.018,-0.484 6.649,-4.785 14.911,-7.462 23.821,-7.045 20.216,0.945 36.259,18.086 35.945,38.323 -0.027,1.702 -0.166,3.378 -0.416,5.015 C -6.578,24.828 0.094,13.194 0,0"
             style="fill:#8bc9fe;fill-opacity:1;fill-rule:nonzero;stroke:none"
             id="path3006" /></g><g
           id="g3008"
           transform="translate(466.7402,189.4414)"><path
             d="m 0,0 c -4.91,0 -9.597,-0.947 -13.9,-2.653 -8.208,17.039 -25.642,28.798 -45.82,28.798 -20.179,0 -37.613,-11.759 -45.821,-28.798 -4.303,1.706 -8.99,2.653 -13.9,2.653 -20.854,0 -37.76,-16.905 -37.76,-37.759 0,-20.854 16.906,-37.76 37.76,-37.76 10.738,0 20.421,4.49 27.297,11.686 8.8,-7.297 20.099,-11.686 32.424,-11.686 12.324,0 23.623,4.389 32.423,11.686 6.876,-7.196 16.559,-11.686 27.297,-11.686 20.854,0 37.76,16.906 37.76,37.76 C 37.76,-16.905 20.854,0 0,0 Z"
             style="fill:none;stroke:#000000;stroke-width:15;stroke-linecap:round;stroke-linejoin:round;stroke-miterlimit:10;stroke-dasharray:none;stroke-opacity:1"
             id="path3010" /></g><g
           id="g3012"
           transform="translate(459.125,314.459)"><path
             d="M 0,0 V 0 -10.981"
             style="fill:none;stroke:#000000;stroke-width:15;stroke-linecap:round;stroke-linejoin:round;stroke-miterlimit:10;stroke-dasharray:none;stroke-opacity:1"
             id="path3014" /></g><g
           id="g3016"
           transform="translate(427.0337,375.7222)"><path
             d="M 0,0 V 0 -10.98"
             style="fill:none;stroke:#000000;stroke-width:15;stroke-linecap:round;stroke-linejoin:round;stroke-miterlimit:10;stroke-dasharray:none;stroke-opacity:1"
             id="path3018" /></g><g
           id="g3020"
           transform="translate(268.9849,196)"><path
             d="M 0,0 V 0 -10.981"
             style="fill:none;stroke:#000000;stroke-width:15;stroke-linecap:round;stroke-linejoin:round;stroke-miterlimit:10;stroke-dasharray:none;stroke-opacity:1"
             id="path3022" /></g><g
           id="g3024"
           transform="translate(130.5034,398.082)"><path
             d="M 0,0 V 0 -10.981"
             style="fill:none;stroke:#000000;stroke-width:15;stroke-linecap:round;stroke-linejoin:round;stroke-miterlimit:10;stroke-dasharray:none;stroke-opacity:1"
             id="path3026" /></g><g
           id="g3028"
           transform="translate(246.2656,152.1899)"><path
             d="M 0,0 V 0 -10.981"
             style="fill:none;stroke:#000000;stroke-width:15;stroke-linecap:round;stroke-linejoin:round;stroke-miterlimit:10;stroke-dasharray:none;stroke-opacity:1"
             id="path3030" /></g></g></g></g></svg>
