<svg width="32" height="32" viewBox="0 0 32 32" fill="none" xmlns="http://www.w3.org/2000/svg">
<path d="M24.434 9.782L20.034 7L18.89 12.076L20.535 9.623C21.1847 11.6859 21.5102 13.8372 21.5 16C21.5 22.233 18.981 27.5 16 27.5C13.18 27.5 10.777 22.786 10.525 17H21.025V15H10.525C10.777 9.214 13.18 4.5 16 4.5V3.5C12.53 3.5 9.783 8.477 9.526 15H2.494C2.22 15 2 15.448 2 16C2 16.552 2.221 17 2.494 17H9.526C9.783 23.523 12.53 28.5 16 28.5C19.645 28.5 22.5 23.01 22.5 16C22.5106 13.6883 22.1535 11.3895 21.442 9.19L24.434 9.782Z" fill="black"/>
<path d="M29.506 15H23V17H29.506C29.779 17 30 16.552 30 16C30 15.448 29.779 15 29.506 15Z" fill="black"/>
</svg>
