<svg width="32" height="32" viewBox="0 0 32 32" fill="none" xmlns="http://www.w3.org/2000/svg">
<path d="M15 9.5255V2.4939C15 2.2211 15.4477 2 16 2C16.5523 2 17 2.2211 17 2.4939V9.5255C23.5229 9.7831 28.5 12.5313 28.5 16C28.5 19.6445 23.0093 22.5 16 22.5C13.6879 22.5107 11.3888 22.1533 9.1891 21.4411L9.7819 24.4344L7 20.0349L12.0756 18.89L9.6224 20.5348C11.6854 21.1849 13.837 21.5105 16 21.5C22.2334 21.5 27.5 18.9814 27.5 16C27.5 13.18 22.7858 10.7769 17 10.5251V21.0251H15V10.5251C9.2142 10.7769 4.5 13.18 4.5 16H3.5C3.5 12.5313 8.4771 9.7831 15 9.5255Z" fill="black"/>
<path d="M17 29.5061C17 29.7789 16.5523 30 16 30C15.4477 30 15 29.7789 15 29.5061V23H17V29.5061Z" fill="black"/>
</svg>
