<svg width="32" height="32" viewBox="0 0 32 32" fill="none" xmlns="http://www.w3.org/2000/svg">
<path d="M24.434 22.218L20.034 25L18.89 19.924L20.535 22.377C21.1847 20.3141 21.5102 18.1628 21.5 16C21.5 9.767 18.981 4.5 16 4.5C13.18 4.5 10.777 9.214 10.525 15H21.025V17H10.525C10.777 22.786 13.18 27.5 16 27.5V28.5C12.53 28.5 9.783 23.523 9.526 17H2.494C2.22 17 2 16.552 2 16C2 15.448 2.221 15 2.494 15H9.526C9.783 8.477 12.53 3.5 16 3.5C19.645 3.5 22.5 8.99 22.5 16C22.5106 18.3117 22.1535 20.6105 21.442 22.81L24.434 22.218Z" fill="black"/>
<path d="M29.506 17H23V15H29.506C29.779 15 30 15.448 30 16C30 16.552 29.779 17 29.506 17Z" fill="black"/>
</svg>
