<svg width="32" height="32" viewBox="0 0 32 32" fill="none" xmlns="http://www.w3.org/2000/svg">
<path d="M16 21C18.2091 21 20 19.2091 20 17C20 14.7909 18.2091 13 16 13C13.7909 13 12 14.7909 12 17C12 19.2091 13.7909 21 16 21Z" fill="black"/>
<path d="M24.126 8.91C22.1075 6.88564 19.4021 5.69355 16.546 5.57L18.251 3.01L14 6.01L18.254 9.01L16.629 6.575C19.0221 6.7225 21.2923 7.68604 23.0609 9.3049C24.8295 10.9238 25.9896 13.1001 26.3477 15.4708C26.7058 17.8415 26.2402 20.2634 25.0286 22.3324C23.817 24.4014 21.9327 25.9924 19.69 26.8402C17.4472 27.6879 14.9816 27.741 12.7044 26.9907C10.4271 26.2404 8.47602 24.7321 7.17642 22.7172C5.87683 20.7023 5.30734 18.3028 5.56295 15.9188C5.81855 13.5348 6.8838 11.3106 8.581 9.617L7.874 8.91C6.2668 10.5172 5.17227 12.5649 4.72883 14.7941C4.28539 17.0233 4.51296 19.334 5.38276 21.4339C6.25255 23.5338 7.72551 25.3286 9.61537 26.5914C11.5052 27.8541 13.7271 28.5281 16 28.5281C18.2729 28.5281 20.4948 27.8541 22.3846 26.5914C24.2745 25.3286 25.7474 23.5338 26.6172 21.4339C27.487 19.334 27.7146 17.0233 27.2712 14.7941C26.8277 12.5649 25.7332 10.5172 24.126 8.91Z" fill="black"/>
</svg>
