<svg width="32" height="32" viewBox="0 0 32 32" fill="none" xmlns="http://www.w3.org/2000/svg">
<path d="M16 21C13.7909 21 12 19.2091 12 17C12 14.7909 13.7909 13 16 13C18.2091 13 20 14.7909 20 17C20 19.2091 18.2091 21 16 21Z" fill="black"/>
<path d="M7.874 8.91C9.89251 6.88564 12.5979 5.69355 15.454 5.57L13.749 3.01L18 6.01L13.746 9.01L15.371 6.575C12.9779 6.7225 10.7077 7.68604 8.93913 9.3049C7.17052 10.9238 6.01043 13.1001 5.65234 15.4708C5.29425 17.8415 5.75981 20.2634 6.97138 22.3324C8.18295 24.4014 10.0673 25.9924 12.31 26.8402C14.5528 27.6879 17.0184 27.741 19.2956 26.9907C21.5729 26.2404 23.524 24.7321 24.8236 22.7172C26.1232 20.7023 26.6927 18.3028 26.4371 15.9188C26.1814 13.5348 25.1162 11.3106 23.419 9.617L24.126 8.91C25.7332 10.5172 26.8277 12.5649 27.2712 14.7941C27.7146 17.0233 27.487 19.334 26.6172 21.4339C25.7474 23.5338 24.2745 25.3286 22.3846 26.5914C20.4948 27.8541 18.2729 28.5281 16 28.5281C13.7271 28.5281 11.5052 27.8541 9.61537 26.5914C7.72551 25.3286 6.25255 23.5338 5.38276 21.4339C4.51296 19.334 4.28539 17.0233 4.72883 14.7941C5.17227 12.5649 6.2668 10.5172 7.874 8.91Z" fill="black"/>
</svg>
