<svg width="32" height="32" viewBox="0 0 32 32" fill="none" xmlns="http://www.w3.org/2000/svg">
<path d="M17 9.5255V2.4939C17 2.2211 16.5523 2 16 2C15.4477 2 15 2.2211 15 2.4939V9.5255C8.4771 9.7831 3.5 12.5313 3.5 16C3.5 19.6445 8.9907 22.5 16 22.5C18.3121 22.5107 20.6112 22.1533 22.8109 21.4411L22.2181 24.4344L25 20.0349L19.9244 18.89L22.3776 20.5348C20.3146 21.1849 18.163 21.5105 16 21.5C9.7666 21.5 4.5 18.9814 4.5 16C4.5 13.18 9.2142 10.7769 15 10.5251V21.0251H17V10.5251C22.7858 10.7769 27.5 13.18 27.5 16H28.5C28.5 12.5313 23.5229 9.7831 17 9.5255Z" fill="black"/>
<path d="M15 29.5061C15 29.7789 15.4477 30 16 30C16.5523 30 17 29.7789 17 29.5061V23H15V29.5061Z" fill="black"/>
</svg>
